<svg width="744" height="142" viewBox="0 0 744 142" fill="none" xmlns="http://www.w3.org/2000/svg">
<path d="M128.122 125.825C123.694 117.833 119.247 109.833 114.78 101.824H52.9638C51.4706 101.824 50.0021 101.442 48.6976 100.715C47.3932 99.9885 46.296 98.9404 45.5102 97.6707C44.7244 96.4009 44.2759 94.9514 44.2074 93.4597C44.1388 91.968 44.4524 90.4835 45.1185 89.1469L60.1118 59.2017H33.4459L0.113403 125.825H128.122Z" fill="url(#paint0_linear_21076_7)"/>
<path d="M1.45007 15.201L14.7831 39.1606H76.6079C78.1014 39.1599 79.5702 39.5411 80.8748 40.268C82.1794 40.9949 83.2765 42.0433 84.0618 43.3136C84.8471 44.5839 85.2946 46.0339 85.3616 47.5258C85.4287 49.0178 85.1132 50.5021 84.445 51.8377L69.4516 81.8245H96.1176C107.226 59.6028 118.336 37.395 129.45 15.201H1.45007Z" fill="url(#paint1_linear_21076_7)"/>
<path d="M186.584 36.9006V52.5987H217.414L184.038 99.4102V106.623H242.729V89.6519H210.343L242.446 45.1032V36.9006H186.584ZM322.214 77.9137C324.901 49.2045 310.335 34.7792 287 34.7792C264.372 34.7792 249.946 50.0531 249.946 71.2667C249.946 93.6118 264.23 108.461 288.272 108.461C298.879 108.461 310.9 104.784 318.254 97.1474L307.223 86.2577C303.263 90.359 294.919 92.7632 288.555 92.7632C276.393 92.7632 268.897 86.5405 267.766 77.9137H322.214ZM268.049 63.6298C270.594 54.5786 278.231 50.0531 287.565 50.0531C297.465 50.0531 304.536 54.5786 305.668 63.6298H268.049ZM333.704 7.76719V106.623H350.958V75.0852L378.252 106.623H399.042V105.35L366.656 69.7111L395.082 37.8906V36.9006H374.434L350.958 64.9026V7.76719H333.704ZM436.684 35.4864C414.48 35.4864 400.621 51.8916 400.621 71.8324C400.621 91.9147 414.197 108.178 436.825 108.178C459.453 108.178 473.171 91.9147 473.171 71.8324C473.171 51.8916 458.888 35.4864 436.684 35.4864ZM436.825 51.1845C448.422 51.1845 455.776 61.367 455.776 71.8324C455.776 82.4392 449.412 92.3389 436.825 92.3389C424.239 92.3389 417.875 82.4392 417.875 71.8324C417.875 61.367 424.38 51.1845 436.825 51.1845ZM540.237 44.1132C532.176 37.042 523.974 34.9207 513.084 34.9207C500.356 34.9207 483.668 40.5776 483.668 56.7C483.668 72.5395 499.366 77.348 512.518 78.3379C522.418 78.9036 526.378 80.8836 526.378 85.692C526.378 90.7833 520.297 94.1775 513.791 94.036C506.013 93.8946 494.699 89.7933 489.749 84.2778L481.264 96.5817C491.446 107.189 502.477 109.027 513.508 109.027C533.449 109.027 543.49 98.4202 543.49 86.1163C543.49 67.5897 526.802 64.6198 513.65 63.7712C504.74 63.2055 500.639 60.6599 500.639 56.1343C500.639 51.7502 505.164 49.2045 513.367 49.2045C520.014 49.2045 525.671 50.7602 530.621 55.4272L540.237 44.1132ZM587.362 35.4864C565.158 35.4864 551.298 51.8916 551.298 71.8324C551.298 91.9147 564.875 108.178 587.503 108.178C610.131 108.178 623.849 91.9147 623.849 71.8324C623.849 51.8916 609.565 35.4864 587.362 35.4864ZM587.503 51.1845C599.1 51.1845 606.454 61.367 606.454 71.8324C606.454 82.4392 600.09 92.3389 587.503 92.3389C574.916 92.3389 568.552 82.4392 568.552 71.8324C568.552 61.367 575.058 51.1845 587.503 51.1845ZM658.67 106.623V53.023H679.177V37.8906H658.67V33.2236C658.67 24.7381 663.196 20.7782 669.136 20.7782C672.671 20.7782 676.066 22.051 679.743 24.4553L686.107 11.5856C680.45 7.90862 674.086 5.92868 668.004 5.92868C654.003 5.92868 641.417 14.5556 641.417 33.2236V37.8906H628.406V53.023H641.417V106.623H658.67ZM699.87 19.0811V37.042H686.859V51.8916H699.87V82.015C699.87 99.4102 709.77 108.037 724.902 107.471C730.135 107.33 734.236 106.481 739.186 104.501L734.378 89.7933C731.832 91.0661 728.721 91.9147 726.034 91.9147C720.66 91.9147 716.983 88.6619 716.983 82.015V51.8916H736.358V37.042H717.124V17.2426L699.87 19.0811Z" fill="#101942"/>
<defs>
<linearGradient id="paint0_linear_21076_7" x1="64" y1="16.5001" x2="64.1176" y2="125.825" gradientUnits="userSpaceOnUse">
<stop stop-color="#2CD8BA"/>
<stop offset="1" stop-color="#9D00D4"/>
</linearGradient>
<linearGradient id="paint1_linear_21076_7" x1="65.4501" y1="15.201" x2="65" y2="125.5" gradientUnits="userSpaceOnUse">
<stop stop-color="#2CD8BA"/>
<stop offset="1" stop-color="#9D00D4"/>
</linearGradient>
</defs>
</svg>
